<svg width="18" height="20" viewBox="0 0 18 20" fill="none" xmlns="http://www.w3.org/2000/svg">
<path d="M6.09386 19.006C5.46508 18.9718 4.8734 18.6976 4.44086 18.24C3.92346 17.7422 3.46174 17.1896 3.06386 16.592C2.44235 15.702 1.95106 14.7278 1.60486 13.699C1.21272 12.5922 1.00627 11.4282 0.993859 10.254C0.963726 9.10186 1.24937 7.96343 1.81986 6.96199C2.23743 6.24009 2.83305 5.63725 3.54986 5.21099C4.25874 4.78656 5.06768 4.5581 5.89386 4.54899C6.51668 4.58584 7.12871 4.7282 7.70386 4.96999C8.16241 5.17175 8.64505 5.31359 9.13986 5.39199C9.68588 5.2776 10.2194 5.11014 10.7329 4.89199C11.3405 4.65471 11.9839 4.52184 12.6359 4.49899C12.7229 4.49899 12.8089 4.49899 12.8919 4.50899C14.3214 4.55045 15.651 5.25218 16.4919 6.40899C15.1548 7.12384 14.3339 8.53027 14.3689 10.046C14.3556 11.1956 14.835 12.2959 15.6859 13.069C16.0688 13.4338 16.5146 13.7262 17.0019 13.932C16.9019 14.232 16.7869 14.522 16.6649 14.814C16.3875 15.4593 16.0455 16.0748 15.6439 16.651C15.2647 17.2282 14.8234 17.762 14.3279 18.243C13.8755 18.6919 13.2725 18.9567 12.6359 18.986C12.0962 18.9621 11.5661 18.8355 11.0739 18.613C10.5431 18.3817 9.97264 18.2551 9.39386 18.24C8.79875 18.2517 8.21143 18.3776 7.66386 18.611C7.19091 18.8244 6.68561 18.9572 6.16886 19.004L6.09386 19.006ZM9.24386 4.49899C9.16886 4.49899 9.09386 4.49899 9.01886 4.48999C9.00308 4.37096 8.99473 4.25106 8.99386 4.13099C9.02657 3.13213 9.41693 2.17823 10.0939 1.44299C10.4722 1.02057 10.9308 0.677591 11.4429 0.433993C11.9207 0.187994 12.443 0.0400914 12.9789 -0.00100708C12.9939 0.129993 12.9939 0.257993 12.9939 0.379993C12.9797 1.36314 12.6103 2.30797 11.9539 3.03999C11.3104 3.90277 10.3184 4.43686 9.24386 4.49899Z" fill="#191A32"/>
</svg>
