<svg width="30" height="30" viewBox="0 0 30 30" fill="none" xmlns="http://www.w3.org/2000/svg">
<path d="M17.0303 27.5153H4.90906C4.25945 27.5379 3.62963 27.2897 3.17001 26.8301C2.71039 26.3705 2.46224 25.7407 2.48481 25.0911V12.9699C2.46224 12.3203 2.71039 11.6904 3.17001 11.2308C3.62963 10.7712 4.25945 10.5231 4.90906 10.5456H9.75754V5.69714C9.73497 5.04754 9.98312 4.41772 10.4427 3.9581C10.9024 3.49848 11.5322 3.25033 12.1818 3.2729H24.303C24.9526 3.25033 25.5824 3.49848 26.042 3.9581C26.5017 4.41772 26.7498 5.04754 26.7272 5.69714V17.8184C26.7494 18.4679 26.5012 19.0975 26.0416 19.557C25.5821 20.0165 24.9525 20.2648 24.303 20.2426H19.4545V25.0911C19.4767 25.7406 19.2285 26.3702 18.7689 26.8297C18.3094 27.2893 17.6798 27.5375 17.0303 27.5153ZM4.90906 12.9699V25.0911H17.0303V20.2426H12.1818C11.5323 20.2648 10.9027 20.0165 10.4431 19.557C9.9836 19.0975 9.73533 18.4679 9.75754 17.8184V12.9699H4.90906ZM12.1818 5.69714V17.8184H24.303V5.69714H12.1818Z" fill="#21283F"/>
</svg>
