<svg width="50" height="50" viewBox="0 0 50 50" fill="none" xmlns="http://www.w3.org/2000/svg">
<path d="M25 0C11.2245 0 0 11.2245 0 25C0 38.7755 11.2245 50 25 50C38.7755 50 50 38.7755 50 25C50 11.2245 38.7755 0 25 0ZM25 39.0306C23.7245 39.0306 22.449 37.7551 22.449 36.4796C22.449 35.2041 23.7245 33.9286 25 33.9286C26.2755 33.9286 27.551 35.2041 27.551 36.4796C27.551 37.7551 26.2755 39.0306 25 39.0306ZM30.8673 22.449C30.3571 23.2143 29.8469 23.9796 29.0816 24.7449C27.8061 26.2755 26.7857 27.551 26.7857 28.8265C26.7857 29.8469 26.0204 30.8673 24.7449 30.8673C23.4694 30.8673 22.7041 30.102 22.7041 28.8265C22.7041 26.2755 24.4898 23.9796 25.7653 22.1939C26.2755 21.6837 26.7857 20.9184 27.2959 20.1531C27.551 19.6429 27.8061 19.1327 27.8061 18.3673C27.8061 16.5816 26.2755 15.3061 24.7449 15.3061C23.2143 15.3061 21.6837 16.8367 21.6837 18.3673C21.6837 19.3878 20.9184 20.4082 19.6429 20.4082C18.3673 20.4082 17.8571 19.6429 17.8571 18.6225C17.8571 14.7959 20.9184 11.4796 25 11.4796C29.0816 11.4796 32.1429 14.5408 32.1429 18.6225C32.1429 19.898 31.6327 21.1735 30.8673 22.449Z" fill="#030D45"/>
</svg>
