<svg width="50" height="50" viewBox="0 0 50 50" fill="none" xmlns="http://www.w3.org/2000/svg">
<path d="M25 0C11.2245 0 0 11.2245 0 25C0 38.7755 11.2245 50 25 50C38.7755 50 50 38.7755 50 25C50 11.2245 38.7755 0 25 0ZM33.9286 21.1735L23.7245 31.3776C23.2143 31.6327 22.9592 31.8878 22.449 31.8878C21.9388 31.8878 21.4286 31.6327 21.1735 31.3776L16.0714 26.2755C15.3061 25.5102 15.3061 24.2347 16.0714 23.4694C16.8367 22.7041 18.1122 22.7041 18.8776 23.4694L22.7041 27.2959L31.6327 18.3673C32.398 17.602 33.6735 17.602 34.4388 18.3673C34.6939 19.3878 34.6939 20.4082 33.9286 21.1735Z" fill="#21283F"/>
</svg>
