<svg width="36" height="50" viewBox="0 0 36 50" fill="none" xmlns="http://www.w3.org/2000/svg">
<path d="M27.7794 39.7765V40.0332C27.7794 44.6524 24.6911 48.7583 20.0588 49.7848C13.8823 51.0679 8.47791 46.4487 8.47791 40.2898V39.7765H27.7794Z" fill="#030D45"/>
<path d="M35.5 17.1937C35.5 22.3262 31.8971 28.2285 30.3529 30.2815C30.0956 30.5381 30.0956 30.7947 29.8382 31.308L28.5515 34.9007C28.2941 35.4139 28.0368 35.6706 27.2647 35.6706H8.47794C7.96324 35.6706 7.44853 35.4139 7.19118 34.9007L5.90441 31.308C5.90441 31.0514 5.64706 30.7947 5.38971 30.2815C4.10294 28.2285 0.757353 22.3262 0.5 17.1937C0.5 12.5745 2.04412 8.21193 5.38971 5.13246C8.73529 1.79636 13.1103 0 18 0C22.8897 0 27.2647 2.05298 30.6103 5.13246C33.6985 8.46855 35.5 12.5745 35.5 17.1937Z" fill="#030D45"/>
</svg>
