<svg width="50" height="50" viewBox="0 0 50 50" fill="none" xmlns="http://www.w3.org/2000/svg">
<path d="M25 0C11.2245 0 0 11.2245 0 25C0 38.7755 11.2245 50 25 50C38.7755 50 50 38.7755 50 25C50 11.2245 38.7755 0 25 0ZM22.9592 16.0714C22.9592 15.051 23.7245 14.0306 25 14.0306C26.2755 14.0306 27.0408 14.7959 27.0408 16.0714V26.2755C27.0408 27.2959 26.2755 28.3163 25 28.3163C23.7245 28.3163 22.9592 27.551 22.9592 26.2755V16.0714ZM25 36.4796C23.7245 36.4796 22.449 35.2041 22.449 33.9286C22.449 32.6531 23.7245 31.3776 25 31.3776C26.2755 31.3776 27.551 32.6531 27.551 33.9286C27.551 35.2041 26.2755 36.4796 25 36.4796Z" fill="#030D45"/>
</svg>
