<svg width="50" height="50" viewBox="0 0 50 50" fill="none" xmlns="http://www.w3.org/2000/svg">
<path d="M25 0C11.2245 0 0 11.2245 0 25C0 38.7755 11.2245 50 25 50C38.7755 50 50 38.7755 50 25C50 11.2245 38.7755 0 25 0ZM27.0408 33.9286C27.0408 34.949 26.2755 35.9694 25 35.9694C23.7245 35.9694 22.9592 35.2041 22.9592 33.9286V23.7245C22.9592 22.7041 23.7245 21.6837 25 21.6837C26.2755 21.6837 27.0408 22.449 27.0408 23.7245V33.9286ZM25 18.6225C23.7245 18.6225 22.449 17.3469 22.449 16.0714C22.449 14.7959 23.7245 13.5204 25 13.5204C26.2755 13.5204 27.551 14.7959 27.551 16.0714C27.551 17.3469 26.2755 18.6225 25 18.6225Z" fill="#030D45"/>
</svg>
