<svg width="50" height="50" viewBox="0 0 50 50" fill="none" xmlns="http://www.w3.org/2000/svg">
<path d="M25 0C11.2245 0 0 11.2245 0 25C0 38.7755 11.2245 50 25 50C38.7755 50 50 38.7755 50 25C50 11.2245 38.7755 0 25 0ZM31.3776 28.8265C32.1429 29.5918 32.1429 30.8673 31.3776 31.6327C30.8673 31.8878 30.6122 32.1429 30.102 32.1429C29.5918 32.1429 29.0816 31.8878 28.8265 31.6327L25 27.8061L21.1735 31.6327C20.4082 32.398 19.1327 32.398 18.3673 31.6327C17.602 30.8673 17.602 29.5918 18.3673 28.8265L22.1939 25L18.3673 21.1735C17.602 20.4082 17.602 19.1327 18.3673 18.3673C19.1327 17.602 20.4082 17.602 21.1735 18.3673L25 22.1939L28.8265 18.3673C29.5918 17.602 30.8673 17.602 31.6327 18.3673C32.398 19.1327 32.398 20.4082 31.6327 21.1735L27.8061 25L31.3776 28.8265Z" fill="#030D45"/>
</svg>
