<svg width="9" height="16" viewBox="0 0 9 16" fill="none" xmlns="http://www.w3.org/2000/svg">
<path d="M7.93973 4.71869H5.96261L8.34014 0.70999C8.4267 0.564992 8.42919 0.384682 8.34606 0.237497C8.26292 0.0903113 8.10818 0 7.93973 0H4.20344H2.33529C2.12108 0 1.93426 0.146561 1.88226 0.355308L0.0141166 7.88646C-0.0210669 8.02645 0.0103803 8.17489 0.0988059 8.28833C0.187543 8.40239 0.323606 8.46864 0.467142 8.46864H2.59527L0.0299958 15.3664C-0.0522027 15.586 0.040582 15.8329 0.246078 15.9442C0.45282 16.0554 0.708445 15.9957 0.84482 15.807L4.20344 11.1402L8.31741 5.46274C8.42109 5.32024 8.43542 5.13181 8.35602 4.97431C8.27631 4.81743 8.11534 4.71869 7.93973 4.71869Z" fill="#FFCB00"/>
<path d="M8.35602 4.97462C8.27631 4.81775 8.11534 4.71869 7.93973 4.71869H5.96261L8.34014 0.70999C8.42669 0.564992 8.42919 0.384682 8.34605 0.237497C8.26292 0.0903113 8.10786 0 7.93942 0H4.20312V11.1405L8.3171 5.46305C8.42078 5.32055 8.43541 5.13212 8.35602 4.97462Z" fill="#FABE2C"/>
</svg>
