<svg width="18" height="18" viewBox="0 0 18 18" fill="none" xmlns="http://www.w3.org/2000/svg">
<path d="M8.9562 7.356V10.807H13.7482C13.3022 13 11.4352 14.26 8.9562 14.26C6.06875 14.2203 3.74887 11.8682 3.74887 8.9805C3.74887 6.09278 6.06875 3.74074 8.9562 3.701C10.1564 3.69956 11.3197 4.11608 12.2462 4.879L14.8462 2.279C11.8638 -0.34293 7.50821 -0.680162 4.15776 1.45145C0.807315 3.58306 -0.732771 7.67121 0.378454 11.4836C1.48968 15.296 4.98515 17.9164 8.9562 17.914C13.4232 17.914 17.4852 14.665 17.4852 8.98C17.4783 8.43264 17.4112 7.8877 17.2852 7.355L8.9562 7.356Z" fill="white"/>
</svg>
