<svg width="35" height="36" viewBox="0 0 35 36" fill="none" xmlns="http://www.w3.org/2000/svg">
<path d="M17.248 0.331787V8.91224C22.3077 8.91224 26.4246 13.0318 26.4246 18.0947C26.4246 23.1575 22.3077 27.2771 17.248 27.2771V35.8575C27.0524 35.8575 35.0007 27.9042 35.0007 18.0936C35.0007 8.28305 27.0524 0.331787 17.248 0.331787Z" fill="white"/>
<path d="M0 9.53418V26.4658C0 31.7318 4.26554 36 9.52814 36V33.6151C9.52814 32.0814 11.3727 31.3036 12.4691 32.3756L16.1791 36C18.6169 36 20.5932 34.0224 20.5932 31.5831V31.5569C20.5932 30.3854 20.1287 29.2621 19.3001 28.434L13.3511 22.4813C10.8705 19.9991 10.8705 15.9748 13.3511 13.4925L19.3001 7.53983C20.1276 6.71172 20.5932 5.58839 20.5932 4.4169C20.5932 1.97761 18.6169 0 16.1791 0L12.4691 3.62439C11.3727 4.69538 9.52814 3.91857 9.52814 2.38486V0C4.26554 0 0 4.26824 0 9.53418ZM8.90981 23.5031C9.39004 23.0225 10.1684 23.0225 10.6487 23.5031C11.1289 23.9836 11.1289 24.7625 10.6487 25.243L9.9299 25.9633H10.0115C10.6905 25.9633 11.2408 26.514 11.2408 27.1934C11.2408 27.8729 10.6905 28.4235 10.0115 28.4235H6.05566C5.37665 28.4235 4.82632 27.8729 4.82632 27.1934C4.82632 26.514 5.37665 25.9633 6.05566 25.9633H6.13727L5.41745 25.243C4.93723 24.7625 4.93723 23.9836 5.41745 23.5031C5.89768 23.0225 6.67608 23.0225 7.15631 23.5031L8.03306 24.3804L8.90981 23.5031ZM8.83553 12.0279C8.83553 12.4969 8.4547 12.878 7.98598 12.878C7.51726 12.878 7.13643 12.4969 7.13643 12.0279C7.13643 11.5589 7.51726 11.1778 7.98598 11.1778C8.4547 11.1778 8.83553 11.5589 8.83553 12.0279ZM11.1456 9.71635C11.1456 10.1854 10.7648 10.5664 10.2961 10.5664C9.82737 10.5664 9.44654 10.1854 9.44654 9.71635C9.44654 9.24733 9.82737 8.86626 10.2961 8.86626C10.7648 8.86626 11.1456 9.24629 11.1456 9.71635ZM6.52438 9.71635C6.52438 10.1854 6.14354 10.5664 5.67483 10.5664C5.20611 10.5664 4.82528 10.1854 4.82528 9.71635C4.82528 9.24733 5.20611 8.86626 5.67483 8.86626C6.14354 8.86626 6.52438 9.24629 6.52438 9.71635ZM8.83553 7.40373C8.83553 7.87274 8.4547 8.25382 7.98598 8.25382C7.51726 8.25382 7.13643 7.87274 7.13643 7.40373C7.13643 6.93471 7.51726 6.55364 7.98598 6.55364C8.4547 6.55364 8.83553 6.93471 8.83553 7.40373Z" fill="#E136C8"/>
</svg>
