<svg width="31" height="28" viewBox="0 0 31 28" fill="none" xmlns="http://www.w3.org/2000/svg">
<path d="M7.12702 10.1884L5.81128 9.35431L3.7908 2.2079H0.893555V0.421143H5.14273L7.66803 9.35431L7.12702 10.1884Z" fill="#FF6326"/>
<path d="M0 13.8213V14.7147C0 21.6107 5.61059 27.2207 12.5067 27.2207L13.4001 19.4188L12.5067 13.8207L6.52117 13.2251L0 13.8213Z" fill="#7E3E19"/>
<path d="M30.1938 9.69548L30.0781 9.10701L29.4896 8.99134C29.3751 8.9688 27.0634 8.52804 24.8762 9.12007L23.79 13.8213L24.4355 18.4762C24.8513 18.4198 25.4902 18.3937 26.2703 18.1719C27.2556 17.8913 28.0683 17.4351 28.6858 16.8164C31.0877 14.4133 30.2311 9.88709 30.1938 9.69548Z" fill="#00CB75"/>
<path d="M24.9163 9.35414C24.9044 9.26457 24.8961 9.20643 24.8961 9.20643C24.2572 6.33232 21.1796 4.2371 21.0444 4.14634L20.5467 3.81177L20.049 4.14575C19.9013 4.24481 16.7335 6.4041 16.167 9.35414L23.0678 10.1882L24.9163 9.35414Z" fill="#70D840"/>
<path d="M12.5068 27.2207C19.4029 27.2207 25.0135 21.6101 25.0135 14.7141V13.8207L17.8671 13.2251L12.5068 13.8207V27.2207Z" fill="#7E3E19"/>
<path d="M12.5067 9.35449H0V13.8214H12.5067L13.1023 11.5879L12.5067 9.35449Z" fill="#6A3011"/>
<path d="M16.0801 19.1809H17.8668V20.9677H16.0801V19.1809Z" fill="#6A3011"/>
<path d="M12.5068 20.9678H14.2936V22.7545H12.5068V20.9678Z" fill="#6A3011"/>
<path d="M12.5068 9.35449H25.0135V13.8214H12.5068V9.35449Z" fill="#6A3011"/>
</svg>
